<svg xmlns="http://www.w3.org/2000/svg" width="33.632" height="35.5" viewBox="0 0 33.632 35.5">
  <g id="download_2" data-name="download 2" transform="translate(-192.5 -105)">
    <path id="Tracé_265" data-name="Tracé 265" d="M258.08,124.779v-17.91a1.868,1.868,0,1,0-3.737,0v17.91l-6.152-6.152a1.869,1.869,0,0,0-2.642,2.642l10.663,10.663,10.663-10.663a1.869,1.869,0,0,0-2.643-2.642Z" transform="translate(-46.896 0)" fill="#000"/>
    <path id="Tracé_266" data-name="Tracé 266" d="M194.368,332.5a1.869,1.869,0,0,1,1.868,1.868v2.989a2.616,2.616,0,0,0,2.616,2.616h20.926a2.616,2.616,0,0,0,2.616-2.616v-2.989a1.868,1.868,0,0,1,3.737,0v2.989a6.352,6.352,0,0,1-6.353,6.353H198.853a6.353,6.353,0,0,1-6.353-6.353v-2.989A1.869,1.869,0,0,1,194.368,332.5Z" transform="translate(0 -203.211)" fill="#000"/>
  </g>
</svg>
