<svg id="Groupe_110" data-name="Groupe 110" xmlns="http://www.w3.org/2000/svg" xmlns:xlink="http://www.w3.org/1999/xlink" width="25.145" height="16" viewBox="0 0 25.145 16">
  <defs>
    <clipPath id="clip-path">
      <rect id="Rectangle_337" data-name="Rectangle 337" width="25.145" height="16" fill="none"/>
    </clipPath>
  </defs>
  <g id="Groupe_21" data-name="Groupe 21" clip-path="url(#clip-path)">
    <path id="Tracé_206" data-name="Tracé 206" d="M25.063,7.648C24.878,7.352,20.813,0,12.573,0S.268,7.353.083,7.648a.783.783,0,0,0,0,.7C.268,8.646,4.333,16,12.573,16s12.3-7.353,12.49-7.649a.783.783,0,0,0,0-.7ZM12.61,14.262a6.245,6.245,0,1,1,6.245-6.245,6.261,6.261,0,0,1-6.245,6.245M1.635,8.017A15.449,15.449,0,0,1,6.587,3.177a7.742,7.742,0,0,0,0,9.681A15.448,15.448,0,0,1,1.635,8.017m17,4.841a7.742,7.742,0,0,0,0-9.681,15.218,15.218,0,0,1,4.915,4.841A15.63,15.63,0,0,1,18.633,12.858Z" transform="translate(0 0.001)"/>
    <path id="Tracé_207" data-name="Tracé 207" d="M180.3,88.34a3.436,3.436,0,1,0,3.436,3.436A3.454,3.454,0,0,0,180.3,88.34Zm0,5.395a1.958,1.958,0,1,1,1.958-1.958,1.971,1.971,0,0,1-1.958,1.958" transform="translate(-167.687 -83.758)"/>
  </g>
</svg>
